<?xml version="1.0" standalone="no"?>
<!DOCTYPE svg PUBLIC "-//W3C//DTD SVG 20010904//EN"
 "http://www.w3.org/TR/2001/REC-SVG-20010904/DTD/svg10.dtd">
<svg version="1.0" xmlns="http://www.w3.org/2000/svg"
 width="260.000000pt" height="260.000000pt" viewBox="0 0 260.000000 260.000000"
 preserveAspectRatio="xMidYMid meet">
<metadata>
Created by potrace 1.14, written by Peter Selinger 2001-2017
</metadata>
<g transform="translate(0.000000,260.000000) scale(0.100000,-0.100000)"
fill="#000000" stroke="none">
<path d="M1100 2545 c-126 -21 -230 -54 -345 -110 -188 -90 -338 -212 -461
-374 -76 -100 -175 -294 -204 -401 -86 -315 -61 -626 74 -905 128 -265 319
-457 581 -585 357 -175 753 -175 1110 0 435 213 705 645 705 1130 0 201 -40
373 -130 555 -184 375 -522 623 -939 691 -104 17 -289 17 -391 -1z m-282 -537
c11 -18 124 -250 252 -515 129 -266 236 -483 240 -483 4 0 116 230 250 510
134 281 248 513 253 517 28 17 40 -42 122 -602 47 -319 90 -596 95 -616 20
-73 76 -109 169 -109 31 0 41 -13 21 -25 -15 -9 -405 6 -421 16 -10 6 -9 12 5
28 19 20 18 29 -33 408 -29 214 -56 401 -60 417 -6 25 -33 -25 -221 -413 -118
-244 -218 -445 -223 -448 -5 -3 -17 3 -27 13 -23 24 -224 415 -335 654 -90
191 -92 196 -99 189 -7 -7 -96 -702 -96 -750 0 -60 21 -78 94 -86 35 -4 55
-10 53 -17 -6 -17 -419 -15 -425 2 -2 7 6 12 23 12 50 0 93 29 109 73 9 23 56
309 106 636 50 327 95 600 101 608 17 20 25 16 47 -19z"/>
</g>
</svg>
