<svg xmlns="http://www.w3.org/2000/svg" version="1.1" xmlns:xlink="http://www.w3.org/1999/xlink" xmlns:svgjs="http://svgjs.com/svgjs" width="1440" height="560" preserveAspectRatio="none" viewBox="0 0 1440 560"><g mask="url(&quot;#SvgjsMask1153&quot;)" fill="none"><rect width="1440" height="560" x="0" y="0" fill="rgba(10, 10, 10, 1)"></rect><path d="M0,645.762C118.841,661.862,228.467,575.412,319.988,497.911C403.949,426.811,463.329,331.485,495.405,226.244C524.883,129.526,496.942,30.112,493.363,-70.935C489.275,-186.347,526.35,-307.392,472.877,-409.75C414.514,-521.469,315.682,-632.507,190.856,-649.995C66.191,-667.46,-26.364,-536.297,-145.762,-496.418C-258.811,-458.659,-406.599,-509.891,-488.335,-423.144C-569.844,-336.639,-538.101,-196.52,-540.309,-77.685C-542.261,27.363,-550.916,136.396,-500.444,228.545C-451.51,317.886,-346.97,352.925,-268.73,418.153C-176.701,494.877,-118.731,629.676,0,645.762" fill="#070707"></path><path d="M1440 1131.376C1554.518 1127.958 1679.57 1144.362 1772.353 1077.1509999999998 1864.0149999999999 1010.751 1866.042 878.2860000000001 1923.775 780.932 1990.859 667.809 2133.409 590.973 2138.5969999999998 459.557 2143.832 326.946 2055.999 197.913 1949.941 118.13400000000001 1850.345 43.21600000000001 1709.439 84.65899999999999 1590.5430000000001 47.297000000000025 1468.267 8.873000000000047 1368.167-139.57799999999997 1245.234-103.31200000000001 1122.2649999999999-67.03499999999997 1114.3980000000001 108.56900000000002 1036.827 210.64800000000002 965.9929999999999 303.862 824.945 353.304 810.007 469.421 795.06 585.607 915.55 670.727 963.912 777.422 1012.46 884.527 1000.277 1027.219 1094.647 1097.38 1189.395 1167.8220000000001 1321.988 1134.899 1440 1131.376" fill="#0e0e0e"></path></g><defs><mask id="SvgjsMask1153"><rect width="1440" height="560" fill="#ffffff"></rect></mask></defs></svg>